<svg xmlns="http://www.w3.org/2000/svg" width="67" height="30.621" viewBox="0 0 67 30.621">
  <g id="Group_777" data-name="Group 777" transform="translate(1 1.5)">
    <g id="Icon_feather-zoom-in" data-name="Icon feather-zoom-in" transform="translate(19 0)">
      <path id="Path_499" data-name="Path 499" d="M28.5,16.5a12,12,0,1,1-12-12,12,12,0,0,1,12,12Z" transform="translate(-4.5 -4.5)" fill="none" stroke="#fff" stroke-linecap="round" stroke-linejoin="round" stroke-width="3"/>
      <path id="Path_500" data-name="Path 500" d="M31.5,31.5l-6.525-6.525" transform="translate(-4.5 -4.5)" fill="none" stroke="#fff" stroke-linecap="round" stroke-linejoin="round" stroke-width="3"/>
      <path id="Path_501" data-name="Path 501" d="M16.5,12v9" transform="translate(-4.5 -4.5)" fill="none" stroke="#fff" stroke-linecap="round" stroke-linejoin="round" stroke-width="3"/>
      <path id="Path_502" data-name="Path 502" d="M12,16.5h9" transform="translate(-4.5 -4.5)" fill="none" stroke="#fff" stroke-linecap="round" stroke-linejoin="round" stroke-width="3"/>
    </g>
    <g id="Icon_ionic-md-arrow-dropleft" data-name="Icon ionic-md-arrow-dropleft" transform="translate(-13.5 -4.5)" fill="#fff" stroke-linecap="round" stroke-linejoin="round">
      <path d="M 23 28.20710945129395 L 22.14645004272461 27.35354995727539 L 13.14645004272461 18.35354995727539 L 12.79288959503174 18 L 13.14645004272461 17.64645004272461 L 22.14645004272461 8.646450042724609 L 23 7.792890071868896 L 23 9 L 23 27 L 23 28.20710945129395 Z" stroke="none"/>
      <path d="M 22.5 9 L 13.5 18 L 22.5 27 L 22.5 9 M 22.50022315979004 7.999971389770508 C 22.62904739379883 7.999971389770508 22.75895309448242 8.024869918823242 22.8826789855957 8.076120376586914 C 23.2563591003418 8.230899810791016 23.5 8.595539093017578 23.5 9 L 23.5 27 C 23.5 27.40446090698242 23.2563591003418 27.76910018920898 22.8826789855957 27.92387962341309 C 22.50901031494141 28.07866096496582 22.07888984680176 27.99309921264648 21.79288864135742 27.70711135864258 L 12.79289054870605 18.70710945129395 C 12.40237045288086 18.31657981872559 12.40237045288086 17.68342018127441 12.79289054870605 17.29289054870605 L 21.79288864135742 8.292890548706055 C 21.98419189453125 8.101594924926758 22.23998641967773 7.999971389770508 22.50022315979004 7.999971389770508 Z" stroke="none" fill="#fff"/>
    </g>
    <g id="Icon_ionic-md-arrow-dropleft-2" data-name="Icon ionic-md-arrow-dropleft" transform="translate(42.5 -4.5)" fill="#fff" stroke-linecap="round" stroke-linejoin="round">
      <path d="M 13 28.20710945129395 L 13 27 L 13 9 L 13 7.792890071868896 L 13.85354995727539 8.646450042724609 L 22.85354995727539 17.64645004272461 L 23.20710945129395 18 L 22.85354995727539 18.35354995727539 L 13.85354995727539 27.35354995727539 L 13 28.20710945129395 Z" stroke="none"/>
      <path d="M 13.5 9 L 13.5 27 L 22.5 18 L 13.5 9 M 13.49977684020996 7.999971389770508 C 13.76004028320312 7.999971389770508 14.01579093933105 8.101577758789062 14.20710945129395 8.292890548706055 L 23.20711135864258 17.29289054870605 C 23.59762954711914 17.68342018127441 23.59762954711914 18.31657981872559 23.20711135864258 18.70710945129395 L 14.20710945129395 27.70711135864258 C 13.92111396789551 27.99309921264648 13.49099731445312 28.07866287231445 13.11731910705566 27.92387962341309 C 12.7436408996582 27.76910018920898 12.5 27.40446090698242 12.5 27 L 12.5 9 C 12.5 8.595539093017578 12.7436408996582 8.230899810791016 13.11731910705566 8.076120376586914 C 13.24102592468262 8.024879455566406 13.37097549438477 7.999971389770508 13.49977684020996 7.999971389770508 Z" stroke="none" fill="#fff"/>
    </g>
  </g>
</svg>
